<?xml version="1.0" standalone="no"?>
<!DOCTYPE svg PUBLIC "-//W3C//DTD SVG 20010904//EN"
 "http://www.w3.org/TR/2001/REC-SVG-20010904/DTD/svg10.dtd">
<svg version="1.0" xmlns="http://www.w3.org/2000/svg"
 width="255.000000pt" height="255.000000pt" viewBox="0 0 255.000000 255.000000"
 preserveAspectRatio="xMidYMid meet">
<metadata>
Created by potrace 1.14, written by Peter Selinger 2001-2017
</metadata>
<g transform="translate(0.000000,255.000000) scale(0.100000,-0.100000)"
fill="#000000" stroke="none">
<path d="M1170 2537 c-3 -2 -34 -7 -70 -10 -374 -35 -776 -319 -950 -672 -97
-197 -127 -335 -121 -560 6 -207 9 -229 42 -342 25 -87 24 -83 37 -116 7 -16
12 -31 12 -34 0 -20 136 -261 160 -283 3 -3 17 -21 32 -40 41 -55 117 -131
183 -183 33 -26 65 -52 72 -57 28 -23 197 -110 260 -134 73 -27 167 -53 223
-62 19 -3 42 -7 50 -10 26 -10 253 -13 315 -4 174 24 339 71 413 118 12 8 22
10 22 6 0 -5 4 -4 8 1 4 6 27 21 52 34 113 62 245 178 356 313 83 103 204 341
220 437 2 7 7 34 13 60 6 25 13 60 17 76 10 53 13 288 4 335 -4 25 -11 78 -15
119 -4 41 -10 84 -15 95 -4 12 -8 24 -9 29 -4 36 -39 128 -74 198 -146 289
-411 515 -727 622 -58 20 -121 38 -140 41 -19 3 -46 8 -60 11 -35 8 -304 19
-310 12z m-323 -822 c0 -8 -4 -12 -9 -9 -4 3 -8 9 -8 15 0 5 4 9 8 9 5 0 9 -7
9 -15z"/>
</g>
</svg>
